<svg width="1254" height="1254" viewBox="0 0 1254 1254" fill="none" xmlns="http://www.w3.org/2000/svg">
<path d="M882.245 58.4295C910.956 55.5495 943.09 73.3669 953.689 100.615C967.27 135.534 951.375 170.652 938.081 202.74C942.037 200.463 946.078 198.355 950.211 196.423C985.253 179.978 1034.15 180.965 1052.77 220.963C1068.55 254.828 1047.24 292.525 1035.14 324.259C1021.82 359.19 1006.35 393.884 992.803 428.917C1000.33 420.631 1007.84 412.652 1016.55 405.561C1036.37 389.438 1061.82 377.903 1087.86 380.708C1103.37 382.378 1118.44 389.063 1128.25 401.501C1137.31 412.977 1139.79 427.859 1137.94 442.11C1135.14 463.706 1110.63 510.092 1100.75 531.082C1010.19 720.457 903.915 901.901 783.034 1073.51L753.876 1115.47C741.74 1132.8 730.902 1150.91 713.812 1163.94C670.804 1196.73 598.708 1198.56 547.077 1191.34C488.937 1183.21 379.335 1147.77 332.322 1112.75C323.544 1106.21 316.394 1098.84 309.813 1090.12C292.535 1062.45 300.174 1039.33 296.898 1007.23C294.89 987.851 289.942 968.888 282.226 950.996C253.657 882.932 193.778 831.486 167.771 762.498C151.967 720.574 159.041 674.987 161.755 631.422C162.771 614.284 162.814 597.099 161.881 579.953C160.565 558.403 157.146 537.032 151.676 516.145C147.202 499.582 140.123 483.688 139.217 466.277C138.587 452.655 141.473 439.102 147.596 426.918C157.831 406.594 175.855 391.277 197.564 384.453C220.245 377.33 244.834 379.591 265.836 390.731C321.936 420.328 344.893 519 347.927 577.226C348.586 588.594 348.915 599.767 349.033 611.172C349.09 616.739 347.752 623.352 349.085 628.771C349.361 629.897 349.631 629.72 350.612 630.228C352.344 629.432 353.046 628.716 353.921 626.989C360.846 613.328 367.582 599.358 374.367 585.646L415.926 501.82L543.53 245.955L585.016 162.168C591.542 148.933 601.809 126.402 609.367 114.587C614.582 106.289 620.907 98.7414 628.163 92.1524C646.257 75.6104 670.057 65.4149 694.641 66.3952C727.43 67.7031 756.943 89.8562 763.323 122.653C765.142 132.018 764.793 139.594 764.334 149.017C774.4 134.416 780.664 122.462 793.026 108.63C817.353 81.4113 844.913 60.9811 882.245 58.4295Z" fill="#1F1E20"/>
<path d="M784.571 126.052C789.255 118.582 795.849 110.902 802.034 104.51C819.962 85.9599 840.493 71.1385 865.775 64.8587C903.621 55.4585 944.554 72.8021 953.396 113.053C958.196 134.702 951.95 156.699 944.444 177.065C942.509 182.267 939.208 190.908 936.563 195.454C935.443 199.02 933.912 202.437 932.461 205.887C897.412 231.362 883.972 254.981 864.862 292.405L843.866 333.359L769.937 478.815L736.97 543.841C734.974 547.829 726.659 561.427 728.239 564.755L729.739 565.17C734.993 561.912 825.087 375.172 840.572 349.127C847.326 333.513 856.927 317.309 864.495 301.857C869.902 290.811 876.38 277.714 882.582 267.19C900.401 236.955 925.897 209.221 959.494 196.883C979.59 189.444 1003.48 187.33 1023.29 196.578C1036.12 202.517 1046.06 213.329 1050.9 226.619C1058.97 248.832 1052.23 274.034 1042.53 294.65C1040.54 301.641 1032.34 320.734 1029.18 328.605C1020.69 349.978 1012.02 371.285 1003.19 392.522C1001.14 398.479 995.675 412.098 992.907 417.708C985.505 441.642 965.672 471.636 952.593 494.093L903.039 580.097L885.093 611.383C883.213 614.648 876.251 624.819 877.182 627.954L878.29 628.621C882.521 626.117 904.717 585.468 908.844 578.263L955.673 497.134C959.004 491.401 967.834 474.527 971.342 470.436C987.678 437.159 1013.46 405.879 1048.04 391.047C1082.15 376.417 1129.93 385.243 1134.58 428.224C1135.31 435.008 1134.01 447.401 1131.25 453.608C1129.49 461.292 1120.03 480.653 1116.3 488.64L1090.09 544.382C1003.31 723.755 902.305 895.886 788.043 1059.13L761.762 1097.25C760.464 1099.12 752.737 1110.33 751.684 1111.28C749.565 1115.05 745.132 1120.94 742.597 1124.7C733.982 1137.51 725.361 1150.17 712.894 1159.67C671.178 1191.44 603.872 1194.19 554.11 1188.1C533.906 1185.44 513.895 1181.49 494.204 1176.25C448.724 1164.23 345.365 1129.72 315.893 1091.58C296.48 1066.46 304.105 1035.13 300.871 1005.65C298.837 987.125 293.865 969.209 287.033 951.893C270.593 910.22 241.584 875.166 215.951 838.966C208.145 827.939 200.838 816.439 193.801 804.91C184.258 789.271 175.579 774.35 170.163 756.666C159.568 722.077 161.282 689.833 164.208 654.35C165.009 644.639 165.217 634.744 166.493 625.1C166.605 600.048 166.766 582.84 163.918 557.58C164.99 557.367 166.06 557.147 167.13 556.92C195.886 550.788 212.219 530.619 205.785 500.71C202.536 485.607 197.848 473.506 184.085 464.958C170.386 456.45 158.18 457.451 143.136 460.884L143.175 459.687C144.233 439.266 153.227 420.066 168.238 406.18C184.431 391.196 205.996 383.396 228.027 384.557C273.874 386.597 300.256 421.123 317.249 460.065C341.663 516.014 347.098 576.164 344.095 636.563C455.222 652.752 525.233 701.528 566.006 807.23C646.478 754.174 734.135 744.365 821.144 791.065C822.999 792.064 827.12 794.684 829.036 794.445L829.808 793.19C829 789.816 821.989 786.59 818.964 784.612C740.148 733.117 653.746 729.933 574.146 781.875C537.368 682.651 459.899 639.41 358.524 627.194L487.035 368.721L526.463 289.6C535.43 271.357 545.435 250.043 555.031 232.283C556.598 228.568 558.673 224.485 560.467 220.854C575.322 189.817 591.599 159.232 606.37 128.175C626.841 85.1296 679.83 54.4107 725.71 78.7237C741.342 86.939 753.056 101.039 758.272 117.911C765.155 140.848 759.295 158.73 748.5 178.853C741.801 195.319 729.237 219.44 721.167 236.305L624.031 439.356C620.161 447.454 589.94 509.185 590.208 511.659L591.179 512.845L592.795 512.932C595.315 510.337 610.361 477.505 612.77 472.472L682.61 326.597L703.073 283.824C704.99 279.814 710.488 267.705 712.429 264.7C717.058 252.932 726.72 234.343 732.402 222.49C743.436 199.481 754.17 175.493 766.692 153.386C768.541 150.129 773.133 142.102 775.417 139.553C777.193 136.119 782.042 128.803 784.571 126.052Z" fill="#DF5FEE"/>
<path d="M555.03 232.284C556.598 228.569 558.672 224.487 560.466 220.856C575.321 189.818 591.598 159.233 606.37 128.177C626.841 85.131 679.83 54.4121 725.71 78.725C741.342 86.9403 753.055 101.04 758.272 117.912C765.154 140.849 759.295 158.732 748.5 178.854C748.334 174.829 751.175 172.366 751.237 170.205C751.347 166.391 745.952 162.311 749.094 158.279C750.9 157.949 751.286 158.105 753.086 158.322C755.057 157.177 754.384 157.973 755.204 155.857C754.8 152.671 753.471 150.677 754.102 148.701L754.69 148.351C760.574 144.782 760.109 140.226 759.809 133.76L758.878 133.728C746.693 133.182 751.23 119.97 749.051 119.241C746.938 119.768 746.534 120.328 745.212 119.389C743.081 117.873 741.14 116.242 740.552 113.582C739.725 109.844 742.003 105.751 741.317 102.033C740.246 96.1959 732.806 94.6137 730.816 89.1563C729.457 85.4212 731.343 83.3192 727.736 80.7346C725.942 79.4665 723.714 78.9718 721.546 79.3612C719.17 79.788 717.793 81.5888 716.66 83.5329C714.902 83.6376 715.576 83.727 713.91 82.9297C708.736 85.0973 707.071 83.6939 701.334 81.8282C699.73 77.1649 701.83 74.8289 698.125 71.8954C691.188 70.7608 676.205 72.0228 670.78 76.7302C668.006 78.6895 664.81 84.7648 660.524 83.1159C653.396 80.1676 654.174 80.1144 647.561 84.2915C632.345 93.9004 620.387 107.002 611.111 122.294C610.255 123.705 613.86 125.02 614.735 125.425C616.272 128.117 615.244 131.889 612.843 133.629C609.928 133.189 607.801 129.706 606.911 131.316C593.035 156.407 580.417 184.813 567.144 210.353C562.63 219.037 559.701 228.021 555.03 232.284Z" fill="#A94BF1"/>
<path d="M840.572 349.128C847.326 333.514 856.927 317.311 864.495 301.859C869.902 290.812 876.38 277.715 882.582 267.192C900.401 236.957 925.897 209.222 959.494 196.884C979.59 189.445 1003.48 187.331 1023.29 196.579C1036.12 202.518 1046.06 213.33 1050.9 226.62C1058.97 248.833 1052.23 274.035 1042.53 294.652C1042.25 291.449 1044.67 286.098 1045.87 282.896C1052.83 264.424 1056.13 248.634 1050.53 229.274C1049.65 226.241 1047.26 225.608 1044.18 223.869C1041.49 215.048 1046.41 216.83 1038.21 208.953C1034.8 209.199 1032.62 211.896 1030.18 208.501C1028.49 206.147 1031.31 202.349 1028.59 200.827C1027.18 200.038 1022.05 197.014 1020.76 197.2L1019.8 198.588C1016.13 199.827 1011.37 202.235 1008.4 198.945C1008.09 197.308 1007.63 193.808 1006.24 193.152C995.369 188.024 987.048 195.144 977.331 197.824C974.716 198.544 974.244 197.618 972.438 196.343C967.062 196.343 963.486 196.42 958.349 198.489C957.669 198.65 951.308 201.648 951.308 201.697C951.295 205.898 952.673 211.053 947.793 213.193C944.235 214.851 941.982 211.932 939.147 210.415C936.771 209.149 933.734 211.508 931.824 212.899C920.049 221.471 909.53 232.251 900.394 243.554C895.043 250.171 889.985 257.072 886.636 264.907C885.822 266.821 885.981 266.885 884.248 268.122C882.974 271.064 881.156 272.391 879.643 275.482C877.984 278.865 876.031 282.284 874.286 285.651L851.6 330.086C849.573 334.056 843.56 347.282 840.572 349.128Z" fill="#A94BF1"/>
<path d="M784.57 126.052C789.254 118.582 795.849 110.902 802.033 104.51C819.962 85.9599 840.492 71.1385 865.774 64.8587C903.621 55.4585 944.553 72.8021 953.395 113.053C958.195 134.702 951.95 156.699 944.443 177.065C942.508 182.267 939.208 190.908 936.563 195.454C936.324 189.191 943.188 181.893 943.659 174.332C940.977 170.727 941.382 166.724 946.029 165.505L947.162 166.284C949.115 154.492 954.785 143.752 953.75 130.911C953.475 127.483 955.14 120.277 951.601 118.244C949.752 118.751 949.084 118.894 947.186 119.163C939.796 115.288 943.163 104.936 946.715 100.012C947.676 98.6811 945.306 95.6606 944.431 94.0252C941.014 94.3411 936.569 93.4104 934.824 94.6767C930.354 91.7633 934.634 86.4755 934.187 82.7257C933.734 78.8706 929.27 77.7893 926.521 74.9347L925.278 75.1441C924.145 76.5959 924.219 76.6449 922.688 77.6117C920.38 77.0686 915.052 74.6537 914.434 72.2486C912.003 62.7725 900.296 67.5516 894.92 63.5906C882.845 64.0137 869.877 62.8858 860.123 69.3475C856.688 71.8065 850.865 70.3688 847.227 72.2743C829.912 81.3615 814.512 93.3823 801.029 107.511C797.508 111.202 788.067 124.647 784.57 126.052Z" fill="#A94BF1"/>
<path d="M971.342 470.438C987.678 437.162 1013.46 405.882 1048.04 391.049C1082.15 376.42 1129.93 385.246 1134.58 428.227C1135.31 435.011 1134.01 447.404 1131.25 453.611L1130.72 452.561C1131.97 446.486 1135.45 427.987 1132.43 423.152C1128.92 421.657 1121.49 422.75 1122.65 415.859C1123.16 412.917 1126.59 412.055 1126.95 408.767C1125.69 406.487 1125.67 406.308 1123.57 404.889C1117.69 403.453 1115.34 407.922 1110.57 400.745C1110.55 398.797 1111.19 398.038 1112.13 396.331C1111.88 393.166 1109.41 391.615 1106.46 390.831C1102.63 394.321 1103.63 394.361 1098.94 393.641C1094.99 393.895 1094.46 386.961 1092.58 386.65C1061.51 381.475 1032.09 396.997 1010.32 418.091C1006.48 421.813 1005.93 420.712 1004.71 426.215C1000.7 429.603 996.93 432.187 993.624 436.241C989.172 441.699 975.475 467.265 971.342 470.438Z" fill="#A94BF1"/>
<path d="M775.416 139.555C775.741 142.737 760.868 165.531 758.609 170.454C755.59 177.049 751.708 185.619 748.512 192.215L750.343 192.207C752.026 193.983 751.922 193.918 752.706 196.279C751.751 198.279 752.449 197.574 750.759 198.655C749.602 198.041 748.812 197.56 747.71 196.855C742.156 199.153 720.566 256.344 712.429 264.702C717.058 252.934 726.72 234.345 732.402 222.491C743.436 199.482 754.17 175.495 766.691 153.388C768.54 150.131 773.133 142.103 775.416 139.555Z" fill="#A94BF1"/>
<path d="M992.907 417.709C992.485 411.687 997.261 408.868 996.385 404.661C995.124 404.06 995.712 404.387 994.61 403.695C995.271 401.499 995.167 401.497 996.722 399.653L998.339 399.769C1000.32 398.552 1000.79 395.695 1001.78 393.064L1003.19 392.523C1001.14 398.481 995.675 412.1 992.907 417.709Z" fill="#A94BF1"/>
<path d="M884.248 268.121C885.871 268.393 885.546 268.044 886.575 268.877L886.758 268.696L886.397 270.344L886.183 271.669L885.62 271.713C884.971 270.349 884.499 269.605 884.248 268.121Z" fill="#A94BF1"/>
<path d="M156.663 462.501C159.667 462.362 161.886 462.297 164.888 462.661C175.849 463.993 185.818 469.668 192.559 478.413C199.362 487.371 204.587 506.714 202.768 517.898C200.717 530.513 194.606 538.949 184.587 546.308C176.901 550.931 171.846 551.4 163.168 553.343C161.448 540.084 158.792 526.963 155.22 514.079C149.622 494.318 145.169 486.618 143.247 465.102C147.812 464.131 152.061 463.266 156.663 462.501Z" fill="#FD6DFA"/>
</svg>
